<svg width="30" height="31" xmlns="http://www.w3.org/2000/svg" xmlns:xlink="http://www.w3.org/1999/xlink" xml:space="preserve" overflow="hidden"><g transform="translate(-226 -525)"><g><g><g><g><path d="M237.271 534.307C237.271 531.888 239.232 529.927 241.651 529.927 244.07 529.927 246.031 531.888 246.031 534.307 246.031 534.641 245.761 534.911 245.427 534.911 245.093 534.911 244.823 534.641 244.823 534.307 244.823 532.555 243.403 531.135 241.651 531.135 239.899 531.135 238.479 532.555 238.479 534.307L238.479 537.781 247.542 537.781C249.21 537.781 250.562 539.134 250.562 540.802L250.562 547.146C250.562 548.814 249.21 550.167 247.542 550.167L235.458 550.167C233.79 550.167 232.438 548.814 232.438 547.146L232.438 540.802C232.438 539.134 233.79 537.781 235.458 537.781L237.271 537.781 237.271 534.307ZM240.896 544.301C240.362 544.068 239.99 543.536 239.99 542.917 239.99 542.083 240.666 541.406 241.5 541.406 242.334 541.406 243.01 542.083 243.01 542.917 243.01 543.536 242.638 544.068 242.104 544.301L242.104 545.787C242.104 546.12 241.834 546.391 241.5 546.391 241.166 546.391 240.896 546.12 240.896 545.787L240.896 544.301ZM233.646 540.802C233.646 539.801 234.457 538.99 235.458 538.99L247.542 538.99C248.543 538.99 249.354 539.801 249.354 540.802L249.354 547.146C249.354 548.147 248.543 548.958 247.542 548.958L235.458 548.958C234.457 548.958 233.646 548.147 233.646 547.146L233.646 540.802Z" fill="#000000" fill-rule="evenodd" fill-opacity="1"/></g></g></g></g></g></svg>