<svg width="1084" height="1084" xmlns="http://www.w3.org/2000/svg" xmlns:xlink="http://www.w3.org/1999/xlink" xml:space="preserve" overflow="hidden"><g transform="translate(-124 200)"><g><g><g><g><path d="M665.5-11.1496C472.356-11.1496 315.781 145.425 315.781 338.569 315.781 430.226 351.042 513.647 408.738 576.008 460.252 487.479 556.293 427.344 665.514 427.344 774.725 427.344 870.749 487.527 922.263 576.007 979.959 513.646 1015.22 430.226 1015.22 338.569 1015.22 145.425 858.644-11.1496 665.5-11.1496ZM665.5 688.288C580.777 688.288 503.091 658.161 442.569 608.035 484.905 527.626 569.402 472.469 665.514 472.469 761.596 472.469 846.083 527.655 888.434 608.032 827.913 658.16 750.224 688.288 665.5 688.288ZM270.656 338.569C270.656 120.504 447.433-56.2746 665.5-56.2746 883.567-56.2746 1060.34 120.504 1060.34 338.569 1060.34 556.636 883.567 733.413 665.5 733.413 447.433 733.413 270.656 556.636 270.656 338.569ZM551.704 238.594C551.704 169.451 603.98 115.875 665.506 115.875 727.031 115.875 779.306 169.451 779.306 238.594 779.306 307.736 727.031 361.312 665.506 361.312 603.98 361.312 551.704 307.736 551.704 238.594ZM665.506 70.75C576.407 70.75 506.579 147.264 506.579 238.594 506.579 329.923 576.407 406.437 665.506 406.437 754.603 406.437 824.431 329.923 824.431 238.594 824.431 147.264 754.603 70.75 665.506 70.75Z" fill="#000000" fill-rule="evenodd" fill-opacity="1"/></g></g></g></g></g></svg>