<svg xmlns="http://www.w3.org/2000/svg">
    <symbol viewBox="0 0 242 44" id="icon-brand">
        <path
            d="M238.141 20.2916C238.672 20.2873 239.192 20.4398 239.635 20.7299C240.078 21.0199 240.425 21.4343 240.63 21.9203C240.835 22.4064 240.89 22.942 240.787 23.459C240.685 23.9761 240.43 24.4511 240.054 24.8237C239.679 25.1963 239.2 25.4497 238.679 25.5514C238.158 25.6531 237.619 25.5987 237.129 25.395C236.64 25.1914 236.222 24.8477 235.93 24.4078C235.638 23.9678 235.484 23.4515 235.488 22.9246C235.488 22.2263 235.768 21.5566 236.265 21.0628C236.763 20.569 237.437 20.2916 238.141 20.2916ZM238.141 20.7041C237.566 20.7398 237.027 20.9916 236.633 21.4082C236.238 21.8248 236.019 22.3749 236.019 22.9465C236.019 23.5181 236.238 24.0682 236.633 24.4848C237.027 24.9014 237.566 25.1532 238.141 25.1889C238.716 25.1532 239.255 24.9014 239.649 24.4848C240.044 24.0682 240.263 23.5181 240.263 22.9465C240.263 22.3749 240.044 21.8248 239.649 21.4082C239.255 20.9916 238.716 20.7398 238.141 20.7041ZM237.641 24.4824H237.168V21.5291C237.446 21.4837 237.727 21.4602 238.008 21.4589C238.332 21.435 238.656 21.5134 238.932 21.6827C239.026 21.7532 239.1 21.8461 239.148 21.9528C239.196 22.0594 239.216 22.1763 239.206 22.2927C239.207 22.4601 239.149 22.6225 239.044 22.7533C238.939 22.8841 238.792 22.9755 238.627 23.0123V23.0343C238.888 23.0826 239.069 23.3195 239.122 23.754C239.146 24.0053 239.21 24.2512 239.312 24.4824H238.808C238.692 24.2477 238.623 23.9929 238.605 23.732C238.601 23.6548 238.581 23.5793 238.546 23.5104C238.51 23.4414 238.461 23.3806 238.4 23.3318C238.34 23.283 238.27 23.2474 238.195 23.2271C238.12 23.2068 238.041 23.2024 237.964 23.2142H237.633L237.641 24.4824ZM237.641 22.8456H237.986C238.375 22.8456 238.707 22.7052 238.707 22.3409C238.707 22.082 238.517 21.8231 237.986 21.8231C237.871 21.8236 237.756 21.831 237.641 21.845V22.8456Z"
            fill="#e30613" />
        <circle cx="146" cy="20" r="4" fill="#E30613" />
        <path
            d="M0.830148 20.1864C0.64889 0.0484836 12.7003 -6.0688 16.0602 6.61338C16.3034 7.57002 22.3512 30.4199 22.3512 30.4199C22.3512 30.4199 27.5546 17.5753 28.7173 14.7493C30.6095 10.1591 33.881 10.5365 35.7908 16.2632C38.6291 24.737 40.7246 30.8104 40.7246 30.8104C40.7246 30.8104 43.271 26.4221 43.8413 25.5138C48.2401 18.6329 52.9926 20.9543 54.6505 26.0053C57.303 33.992 59.739 40.3374 64.5931 35.857C65.0618 23.7102 80.6146 23.7277 82.8162 31.1966C84.726 29.9196 86.8967 28.217 88.1213 27.4841C90.9242 25.7815 93.2054 27.3349 94.0498 29.1166C94.8057 30.7139 95.5971 33.1801 96.3133 35.0759C97.0029 36.897 99.4079 37.1691 101.375 34.5712L99.8942 28.5241L108.126 26.0491C108.126 26.0491 110.107 32.6316 111.862 35.9272C112.79 37.6825 113.117 37.8932 114.841 37.4017C116.21 36.9171 117.541 36.3304 118.82 35.6464C115.757 23.3942 121.915 11.9495 127.587 7.25846C131.981 3.6425 136.34 4.94582 137.53 10.2162C138.303 13.6259 139.214 21.1869 127.569 33.5312C128.506 35.6025 130.368 37.191 132.339 36.8882C135.213 36.4494 138.71 33.6146 141.738 28.941C144.767 24.2675 146.314 26.7952 146.92 28.7348C147.304 29.9635 147.729 32.1006 148.303 33.7067C149.236 36.3002 151.504 35.9009 152.662 34.5405C154.661 32.1928 156.756 29.7134 157.72 28.7172C159.983 26.3344 162.923 26.7732 164.391 28.7172C165.576 30.2795 166.31 32.3244 167.331 34.1631C169.007 32.6974 170.992 29.8889 171.871 29.02C175.762 25.1759 178.445 27.2647 179.776 29.2219C182.601 33.3776 182.778 39.4642 189.772 39.0253C186.509 30.7183 195.152 25.6366 200.886 25.8912C206.805 26.1457 209.286 29.0288 206.85 33.2503C206.014 34.6985 204.356 36.682 201.01 37.959C205.028 39.7582 210.462 39.2009 215.997 36.7522C215.09 35.1066 211.615 28.963 211.08 27.4753L220.899 27.2077L223.857 31.4511L231.337 27.3612L232.61 29.2614L225.493 34.444C227.137 38.5426 232.796 39.7099 238.114 38.1916L238.928 40.2628C236.045 41.4126 230.625 43.2074 230.042 43.3829C228.322 43.9095 223.128 45.3445 217.641 39.1263C211.35 41.9918 198.781 46.74 192.177 41.1317C178.573 47.0691 175.298 40.1136 172.897 36.4275C172.274 35.4708 171.796 36.072 171.257 36.6995C170.717 37.3271 168.043 40.8202 166.579 41.9084C165.664 42.5886 163.251 44.4449 160.983 41.4257C160.342 40.5481 159.338 38.5865 158.33 36.9585C157.556 35.7341 157.088 36.2695 155.567 37.6386C155.023 38.1301 152.03 40.7412 150.859 41.7636C149.789 42.7027 145.92 45.0592 142.609 41.18C141.477 39.8635 140.509 38.6743 139.324 37.4236C135.531 40.5305 127.171 47.1569 120.173 39.3588C111.415 44.9188 105.584 44.107 103.294 37.9502C95.628 46.0027 90.8534 43.5014 88.6739 38.999C88.108 37.8317 86.7641 35.2207 86.2645 34.1719C86.2373 34.0673 86.1722 33.9763 86.0817 33.9164C85.9911 33.8565 85.8815 33.8318 85.7738 33.8471C84.9642 33.9466 84.1611 34.0931 83.3688 34.286C83.8905 46.0378 69.4385 46.266 65.4906 39.5168C56.8388 45.2918 49.2216 45.1339 45.7644 32.0567C38.9827 45.9237 35.866 49.0614 28.7748 28.1073C18.8631 48.9736 16.9312 46.7005 13.1424 33.0529C12.5235 30.8192 8.01857 14.5869 7.50132 12.8667C6.77629 10.4619 5.32181 9.87388 4.76477 11.7301C3.80985 14.9204 3.23955 20.4409 3.23955 20.4409L0.830148 20.1864ZM76.6402 29.2965C75.8711 29.2764 75.1134 29.4844 74.4641 29.894C73.8147 30.3035 73.3031 30.8959 72.9947 31.5955C72.6862 32.2952 72.5949 33.0702 72.7325 33.8216C72.8701 34.5729 73.2303 35.2665 73.767 35.8136C74.3037 36.3608 74.9926 36.7366 75.7456 36.8932C76.4986 37.0497 77.2816 36.9798 77.9944 36.6923C78.7072 36.4049 79.3174 35.9131 79.7471 35.2796C80.1769 34.6462 80.4065 33.8999 80.4068 33.1362C80.4144 32.6384 80.3229 32.1439 80.1376 31.6812C79.9522 31.2186 79.6767 30.7968 79.3267 30.44C78.9768 30.0833 78.5593 29.7986 78.0983 29.6024C77.6373 29.4062 77.1418 29.3022 76.6402 29.2965ZM132.344 12.621C132.344 10.3039 131.844 9.68957 131.203 9.54915C130.275 9.37362 129.333 10.1065 128.639 11.2518C125.345 16.7065 123.378 22.714 125.284 29.8538C130.567 25.6498 132.313 19.8441 132.344 12.621ZM202.314 32.0348C203.662 28.963 199.838 27.2998 197.641 30.0952C195.231 33.167 195.873 35.111 197.566 36.5503C201.262 34.0578 201.827 33.1582 202.314 32.0348Z"
            fill="#e30613" />
    </symbol>
</svg>
