<svg width="31" height="31" xmlns="http://www.w3.org/2000/svg" xmlns:xlink="http://www.w3.org/1999/xlink" xml:space="preserve" overflow="hidden"><g transform="translate(-189 -525)"><g><g><g><g><path d="M200.422 534.307C200.422 531.888 202.383 529.927 204.802 529.927 207.221 529.927 209.182 531.888 209.182 534.307L209.182 537.781 210.693 537.781C212.361 537.781 213.714 539.134 213.714 540.802L213.714 547.146C213.714 548.814 212.361 550.167 210.693 550.167L198.609 550.167C196.941 550.167 195.589 548.814 195.589 547.146L195.589 540.802C195.589 539.134 196.941 537.781 198.609 537.781L200.422 537.781 200.422 534.307ZM201.63 537.781 207.974 537.781 207.974 534.307C207.974 532.555 206.554 531.135 204.802 531.135 203.05 531.135 201.63 532.555 201.63 534.307L201.63 537.781ZM208.578 538.99 198.609 538.99C197.608 538.99 196.797 539.801 196.797 540.802L196.797 547.146C196.797 548.147 197.608 548.958 198.609 548.958L210.693 548.958C211.694 548.958 212.505 548.147 212.505 547.146L212.505 540.802C212.505 539.801 211.694 538.99 210.693 538.99L208.578 538.99ZM204.198 544.301C203.664 544.068 203.292 543.536 203.292 542.917 203.292 542.083 203.968 541.406 204.802 541.406 205.636 541.406 206.312 542.083 206.312 542.917 206.312 543.536 205.94 544.068 205.406 544.301L205.406 545.787C205.406 546.12 205.136 546.391 204.802 546.391 204.468 546.391 204.198 546.12 204.198 545.787L204.198 544.301Z" fill="#000000" fill-rule="evenodd" fill-opacity="1"/></g></g></g></g></g></svg>